# Blender v2.80 (sub 75) OBJ File: ''
# www.blender.org
mtllib Bed.mtl
o Bed
v 1.525051 0.333685 1.005178
v -1.474949 0.333685 1.005178
v -1.474949 -0.185316 1.005178
v 1.525051 -0.185316 1.005178
v -1.474949 0.333685 1.005178
v -1.474949 0.333685 -0.994822
v -1.474949 -0.185316 -0.994822
v -1.474949 -0.185316 1.005178
v -1.474949 0.333685 -0.994822
v 1.525051 0.333685 -0.994822
v 1.525051 -0.185316 -0.994822
v -1.474949 -0.185316 -0.994822
v 1.525051 0.333685 -0.994822
v 1.525051 0.333685 1.005178
v 1.525051 -0.185316 1.005178
v 1.525051 -0.185316 -0.994822
v 1.525051 0.333685 -0.994822
v -1.474949 0.333685 -0.994822
v -1.474949 0.333685 1.005178
v 1.525051 0.333685 1.005178
v 1.525051 -0.185316 1.005178
v -1.474949 -0.185316 1.005178
v -1.474949 -0.185316 -0.994822
v 1.525051 -0.185316 -0.994822
v 1.662052 1.134683 1.040178
v 1.422051 1.134683 1.040178
v 1.422051 -0.185316 1.040178
v 1.662052 -0.185316 1.040178
v 1.422051 1.134683 1.040178
v 1.422051 1.134684 -1.062821
v 1.422051 -0.185315 -1.062822
v 1.422051 -0.185316 1.040178
v 1.422051 1.134684 -1.062821
v 1.662052 1.134684 -1.062821
v 1.662052 -0.185315 -1.062822
v 1.422051 -0.185315 -1.062822
v 1.662052 1.134684 -1.062821
v 1.662052 1.134683 1.040178
v 1.662052 -0.185316 1.040178
v 1.662052 -0.185315 -1.062822
v 1.662052 1.134684 -1.062821
v 1.422051 1.134684 -1.062821
v 1.422051 1.134683 1.040178
v 1.662052 1.134683 1.040178
v 1.662052 -0.185316 1.040178
v 1.422051 -0.185316 1.040178
v 1.422051 -0.185315 -1.062822
v 1.662052 -0.185315 -1.062822
v 1.531052 0.487685 1.039178
v -1.568949 0.487685 1.039178
v -1.568949 0.287685 1.039178
v 1.531052 0.287685 1.039178
v -1.568949 0.487685 1.039178
v -1.568949 0.487685 -1.058722
v -1.568949 0.287685 -1.058722
v -1.568949 0.287685 1.039178
v -1.568949 0.487685 -1.058722
v 1.531052 0.487685 -1.058722
v 1.531052 0.287685 -1.058722
v -1.568949 0.287685 -1.058722
v 1.531052 0.487685 -1.058722
v 1.531052 0.487685 1.039178
v 1.531052 0.287685 1.039178
v 1.531052 0.287685 -1.058722
v 1.531052 0.487685 -1.058722
v -1.568949 0.487685 -1.058722
v -1.568949 0.487685 1.039178
v 1.531052 0.487685 1.039178
v 1.531052 0.287685 1.039178
v -1.568949 0.287685 1.039178
v -1.568949 0.287685 -1.058722
v 1.531052 0.287685 -1.058722
v 1.529351 0.491685 1.039082
v -1.570648 0.491685 1.039082
v -1.570648 0.481685 1.039082
v 1.529351 0.481685 1.039082
v -1.570648 0.491685 1.040178
v -1.570648 0.491685 -1.059822
v -1.570648 0.481685 -1.059822
v -1.570648 0.481685 1.040178
v -1.570648 0.491685 -1.059822
v 1.529351 0.491685 -1.059822
v 1.529351 0.481685 -1.059822
v -1.570648 0.481685 -1.059822
v 1.529351 0.491685 -1.059822
v 1.529351 0.491685 1.040178
v 1.529351 0.481685 1.040178
v 1.529351 0.481685 -1.059822
v 1.529351 0.491685 -1.059822
v -1.570648 0.491685 -1.059822
v -1.570648 0.491685 1.040178
v 1.529351 0.491685 1.040178
v 1.529351 0.481685 1.040178
v -1.570648 0.481685 1.040178
v -1.570648 0.481685 -1.059822
v 1.529351 0.481685 -1.059822
vt 0.428332 0.614473
vt 0.000279 0.614473
vt 0.000279 0.571668
vt 0.428332 0.571668
vt 0.285648 0.614473
vt 0.000279 0.614473
vt 0.000279 0.571668
vt 0.285648 0.571668
vt 0.428332 0.614473
vt 0.000279 0.614473
vt 0.000279 0.571668
vt 0.428332 0.571668
vt 0.285648 0.614473
vt 0.000279 0.614473
vt 0.000279 0.571668
vt 0.285648 0.571668
vt 0.000279 0.571668
vt 0.428332 0.571668
vt 0.428332 0.857037
vt 0.000279 0.857037
vt 0.428332 0.857037
vt 0.000279 0.857037
vt 0.000279 0.571668
vt 0.428332 0.571668
vt 0.142963 0.742889
vt 0.108719 0.742889
vt 0.108719 0.571668
vt 0.142963 0.571668
vt 0.428332 0.742889
vt 0.128267 0.742889
vt 0.128267 0.571668
vt 0.428332 0.571668
vt 0.034523 0.742889
vt 0.000279 0.742889
vt 0.000279 0.571668
vt 0.034523 0.571668
vt 0.300344 0.742889
vt 0.000279 0.742889
vt 0.000279 0.571668
vt 0.300344 0.571668
vt 0.000279 0.699656
vt 0.034523 0.699656
vt 0.034523 0.999721
vt 0.000279 0.999721
vt 0.142963 0.999721
vt 0.108719 0.999721
vt 0.108719 0.699656
vt 0.142963 0.699656
vt 0.433073 0.739961
vt 0.429831 0.739961
vt 0.429831 0.739682
vt 0.433073 0.739682
vt 0.432027 0.739961
vt 0.429831 0.739961
vt 0.429831 0.739682
vt 0.432027 0.739682
vt 0.432132 0.739961
vt 0.428890 0.739961
vt 0.428890 0.739682
vt 0.432132 0.739682
vt 0.431086 0.739961
vt 0.428890 0.739961
vt 0.428890 0.739682
vt 0.431086 0.739682
vt 0.428890 0.740937
vt 0.432132 0.740937
vt 0.432132 0.743865
vt 0.428890 0.743865
vt 0.433073 0.743865
vt 0.429831 0.743865
vt 0.429831 0.740937
vt 0.433073 0.740937
vt 0.999721 0.745274
vt 0.557327 0.745274
vt 0.557327 0.744423
vt 0.999721 0.744423
vt 0.857013 0.745274
vt 0.557327 0.745274
vt 0.557327 0.744423
vt 0.857013 0.744423
vt 0.871284 0.745274
vt 0.428890 0.745274
vt 0.428890 0.744423
vt 0.871284 0.744423
vt 0.728576 0.745274
vt 0.428890 0.745274
vt 0.428890 0.744423
vt 0.728576 0.744423
vt 0.428890 0.821012
vt 0.871284 0.821012
vt 0.871284 0.999721
vt 0.428890 0.999721
vt 0.999721 0.999721
vt 0.557327 0.999721
vt 0.557327 0.821012
vt 0.999721 0.821012
vn 0.0000 -0.0000 1.0000
vn -1.0000 0.0000 0.0000
vn 0.0000 0.0000 -1.0000
vn 1.0000 0.0000 0.0000
vn 0.0000 1.0000 0.0000
vn 0.0000 -1.0000 -0.0000
usemtl material_atlas_70232_1
s 1
f 1/1/1 2/2/1 3/3/1 4/4/1
f 5/5/2 6/6/2 7/7/2 8/8/2
f 9/9/3 10/10/3 11/11/3 12/12/3
f 13/13/4 14/14/4 15/15/4 16/16/4
f 17/17/5 18/18/5 19/19/5 20/20/5
f 21/21/6 22/22/6 23/23/6 24/24/6
f 25/25/1 26/26/1 27/27/1 28/28/1
f 29/29/2 30/30/2 31/31/2 32/32/2
f 33/33/3 34/34/3 35/35/3 36/36/3
f 37/37/4 38/38/4 39/39/4 40/40/4
f 41/41/5 42/42/5 43/43/5 44/44/5
f 45/45/6 46/46/6 47/47/6 48/48/6
f 49/49/1 50/50/1 51/51/1 52/52/1
f 53/53/2 54/54/2 55/55/2 56/56/2
f 57/57/3 58/58/3 59/59/3 60/60/3
f 61/61/4 62/62/4 63/63/4 64/64/4
f 65/65/5 66/66/5 67/67/5 68/68/5
f 69/69/6 70/70/6 71/71/6 72/72/6
f 73/73/1 74/74/1 75/75/1 76/76/1
f 77/77/2 78/78/2 79/79/2 80/80/2
f 81/81/3 82/82/3 83/83/3 84/84/3
f 85/85/4 86/86/4 87/87/4 88/88/4
f 89/89/5 90/90/5 91/91/5 92/92/5
f 93/93/6 94/94/6 95/95/6 96/96/6
